<?xml version="1.0" encoding="UTF-8" standalone="no"?>
<!-- Generator: Adobe Illustrator 21.0.0, SVG Export Plug-In . SVG Version: 6.00 Build 0)  -->

<svg
   xmlns:dc="http://purl.org/dc/elements/1.1/"
   xmlns:cc="http://creativecommons.org/ns#"
   xmlns:rdf="http://www.w3.org/1999/02/22-rdf-syntax-ns#"
   xmlns:svg="http://www.w3.org/2000/svg"
   xmlns="http://www.w3.org/2000/svg"
   xmlns:sodipodi="http://sodipodi.sourceforge.net/DTD/sodipodi-0.dtd"
   xmlns:inkscape="http://www.inkscape.org/namespaces/inkscape"
   version="1.1"
   id="Capa_1"
   x="0px"
   y="0px"
   viewBox="0 0 512 512"
   style="enable-background:new 0 0 512 512;"
   xml:space="preserve"
   width="512"
   height="512"
   sodipodi:docname="click.svg"
   inkscape:version="0.92.4 (5da689c313, 2019-01-14)"><metadata
   id="metadata32"><rdf:RDF><cc:Work
       rdf:about=""><dc:format>image/svg+xml</dc:format><dc:type
         rdf:resource="http://purl.org/dc/dcmitype/StillImage" /></cc:Work></rdf:RDF></metadata><defs
   id="defs30" /><sodipodi:namedview
   pagecolor="#ffffff"
   bordercolor="#666666"
   borderopacity="1"
   objecttolerance="10"
   gridtolerance="10"
   guidetolerance="10"
   inkscape:pageopacity="0"
   inkscape:pageshadow="2"
   inkscape:window-width="1920"
   inkscape:window-height="1001"
   id="namedview28"
   showgrid="false"
   inkscape:zoom="0.4609375"
   inkscape:cx="256"
   inkscape:cy="256"
   inkscape:window-x="-9"
   inkscape:window-y="-9"
   inkscape:window-maximized="1"
   inkscape:current-layer="Capa_1" />
<g
   id="_x3C_Group_x3E__4_"
   transform="matrix(-1,0,0,1,512.00025,0)"
   style="fill:#000080">
	<g
   id="g4"
   style="fill:#000080">
		<path
   d="m 422.762,507.605 -87.518,-87.503 -42.422,42.422 c -3.662,3.662 -8.979,5.171 -14.048,3.999 -5.068,-1.201 -9.141,-4.922 -10.781,-9.858 L 183.135,202.104 c -1.802,-5.391 -0.396,-11.338 3.618,-15.352 3.999,-3.999 9.961,-5.464 15.352,-3.618 l 254.561,84.858 c 4.937,1.641 8.657,5.713 9.858,10.781 1.187,5.054 -0.322,10.371 -3.999,14.048 l -42.422,42.422 87.503,87.517 c 5.859,5.859 5.859,15.352 0,21.211 l -63.633,63.633 c -5.86,5.861 -15.352,5.861 -21.211,0.001 z"
   id="path2"
   inkscape:connector-curvature="0"
   style="fill:#000080" />
	</g>
	<g
   id="g8"
   style="fill:#000080">
		<path
   d="m 195,120 c -8.291,0 -15,-6.709 -15,-15 V 15 c 0,-8.291 6.709,-15 15,-15 8.291,0 15,6.709 15,15 v 90 c 0,8.291 -6.709,15 -15,15 z"
   id="path6"
   inkscape:connector-curvature="0"
   style="fill:#000080" />
	</g>
	<g
   id="g12"
   style="fill:#000080">
		<path
   d="M 120.762,141.973 57.114,78.325 c -5.859,-5.859 -5.859,-15.352 0,-21.211 5.859,-5.859 15.352,-5.859 21.211,0 l 63.647,63.647 c 5.859,5.859 5.859,15.352 0,21.211 -5.859,5.86 -15.351,5.86 -21.21,0.001 z"
   id="path10"
   inkscape:connector-curvature="0"
   style="fill:#000080" />
	</g>
	<g
   id="g16"
   style="fill:#000080">
		<path
   d="m 57.114,332.886 c -5.859,-5.859 -5.859,-15.352 0,-21.211 l 63.647,-63.647 c 5.859,-5.859 15.352,-5.859 21.211,0 5.859,5.859 5.859,15.352 0,21.211 l -63.647,63.647 c -5.859,5.859 -15.351,5.859 -21.211,0 z"
   id="path14"
   inkscape:connector-curvature="0"
   style="fill:#000080" />
	</g>
	<g
   id="g20"
   style="fill:#000080">
		<path
   d="m 248.027,141.973 c -5.859,-5.859 -5.859,-15.352 0,-21.211 l 63.647,-63.647 c 5.859,-5.859 15.352,-5.859 21.211,0 5.859,5.859 5.859,15.352 0,21.211 l -63.647,63.647 c -5.859,5.859 -15.351,5.859 -21.211,0 z"
   id="path18"
   inkscape:connector-curvature="0"
   style="fill:#000080" />
	</g>
	<g
   id="g24"
   style="fill:#000080">
		<path
   d="M 105,210 H 15 C 6.709,210 0,203.291 0,195 0,186.709 6.709,180 15,180 h 90 c 8.291,0 15,6.709 15,15 0,8.291 -6.709,15 -15,15 z"
   id="path22"
   inkscape:connector-curvature="0"
   style="fill:#000080" />
	</g>
</g>















</svg>